<svg id="visual" viewBox="0 0 960 100" width="960" height="100" xmlns="http://www.w3.org/2000/svg" xmlns:xlink="http://www.w3.org/1999/xlink" version="1.1"><rect x="0" y="0" width="960" height="100" fill="#339999"></rect><path d="M0 51L32 52.3C64 53.7 128 56.3 192 48.7C256 41 320 23 384 23.7C448 24.3 512 43.7 576 52C640 60.3 704 57.7 768 51.7C832 45.7 896 36.3 928 31.7L960 27L960 0L928 0C896 0 832 0 768 0C704 0 640 0 576 0C512 0 448 0 384 0C320 0 256 0 192 0C128 0 64 0 32 0L0 0Z" fill="#222831" stroke-linecap="round" stroke-linejoin="miter"></path></svg>