<svg id="visual" viewBox="0 0 900 200" width="900" height="200" xmlns="http://www.w3.org/2000/svg" xmlns:xlink="http://www.w3.org/1999/xlink" version="1.1"><path d="M0 133L37.5 120.2C75 107.3 150 81.7 225 86C300 90.3 375 124.7 450 144.7C525 164.7 600 170.3 675 158.5C750 146.7 825 117.3 862.5 102.7L900 88L900 201L862.5 201C825 201 750 201 675 201C600 201 525 201 450 201C375 201 300 201 225 201C150 201 75 201 37.5 201L0 201Z" fill="#339999" stroke-linecap="round" stroke-linejoin="miter"></path></svg>