<svg id="visual" viewBox="0 0 900 300" width="900" height="300" xmlns="http://www.w3.org/2000/svg" xmlns:xlink="http://www.w3.org/1999/xlink" version="1.1"><rect x="0" y="0" width="900" height="300" fill="#339999"></rect><path d="M0 133L30 124.7C60 116.3 120 99.7 180 114.2C240 128.7 300 174.3 360 175.3C420 176.3 480 132.7 540 135.8C600 139 660 189 720 193C780 197 840 155 870 134L900 113L900 301L870 301C840 301 780 301 720 301C660 301 600 301 540 301C480 301 420 301 360 301C300 301 240 301 180 301C120 301 60 301 30 301L0 301Z" fill="#222831" stroke-linecap="round" stroke-linejoin="miter"></path></svg>