<svg id="visual" viewBox="0 0 960 100" width="960" height="100" xmlns="http://www.w3.org/2000/svg" xmlns:xlink="http://www.w3.org/1999/xlink" version="1.1"><rect x="0" y="0" width="960" height="100" fill="#339999"></rect><path d="M0 49L22.8 54C45.7 59 91.3 69 137 61.7C182.7 54.3 228.3 29.7 274 26.2C319.7 22.7 365.3 40.3 411.2 53.7C457 67 503 76 548.8 70.7C594.7 65.3 640.3 45.7 686 32.7C731.7 19.7 777.3 13.3 823 19.7C868.7 26 914.3 45 937.2 54.5L960 64L960 101L937.2 101C914.3 101 868.7 101 823 101C777.3 101 731.7 101 686 101C640.3 101 594.7 101 548.8 101C503 101 457 101 411.2 101C365.3 101 319.7 101 274 101C228.3 101 182.7 101 137 101C91.3 101 45.7 101 22.8 101L0 101Z" fill="#222831" stroke-linecap="round" stroke-linejoin="miter"></path></svg>