<svg id="visual" viewBox="0 0 960 100" width="960" height="100" xmlns="http://www.w3.org/2000/svg" xmlns:xlink="http://www.w3.org/1999/xlink" version="1.1"><rect x="0" y="0" width="960" height="100" fill="#339999"></rect><path d="M0 49L22.8 44C45.7 39 91.3 29 137 36.3C182.7 43.7 228.3 68.3 274 71.8C319.7 75.3 365.3 57.7 411.2 44.3C457 31 503 22 548.8 27.3C594.7 32.7 640.3 52.3 686 65.3C731.7 78.3 777.3 84.7 823 78.3C868.7 72 914.3 53 937.2 43.5L960 34L960 0L937.2 0C914.3 0 868.7 0 823 0C777.3 0 731.7 0 686 0C640.3 0 594.7 0 548.8 0C503 0 457 0 411.2 0C365.3 0 319.7 0 274 0C228.3 0 182.7 0 137 0C91.3 0 45.7 0 22.8 0L0 0Z" fill="#222831" stroke-linecap="round" stroke-linejoin="miter"></path></svg>